<svg width="31" height="30" viewBox="0 0 31 30" fill="none" xmlns="http://www.w3.org/2000/svg">
<path d="M5.11743 15C5.11743 14.0714 5.11743 13.6071 5.15168 13.2156C5.53234 8.86458 8.98201 5.41491 13.333 5.03425C13.7245 5 14.1888 5 15.1174 5V5C16.0461 5 16.5104 5 16.9018 5.03425C21.2529 5.41491 24.7025 8.86458 25.0832 13.2156C25.1174 13.6071 25.1174 14.0714 25.1174 15V21.3636C25.1174 22.8983 25.1174 23.6657 24.7185 24.1986C24.6042 24.3512 24.4687 24.4868 24.316 24.6011C23.7831 25 23.0158 25 21.4811 25H15.1174C14.1888 25 13.7245 25 13.333 24.9658C8.98201 24.5851 5.53234 21.1354 5.15168 16.7844C5.11743 16.3929 5.11743 15.9286 5.11743 15V15Z" stroke="#508CC3" stroke-width="2"/>
<path d="M11.3674 13.75L18.8674 13.75" stroke="#508CC3" stroke-width="1.5" stroke-linecap="round" stroke-linejoin="round"/>
<path d="M15.1174 18.75H18.8674" stroke="#508CC3" stroke-width="1.5" stroke-linecap="round" stroke-linejoin="round"/>
</svg>
