<svg width="30" height="30" viewBox="0 0 30 30" fill="none" xmlns="http://www.w3.org/2000/svg">
<g clip-path="url(#clip0_10_109)">
<path fill-rule="evenodd" clip-rule="evenodd" d="M21.0542 8.18486C19.5054 6.70773 17.4386 5.90303 15.3 5.9361C11.3868 5.9361 8.06324 8.57616 6.87822 12.1312C6.24989 13.9941 6.24989 16.0114 6.87822 17.8744H6.88372C8.07424 21.4239 11.3923 24.064 15.3055 24.064C17.3256 24.064 19.0598 23.5473 20.4039 22.6347V22.631C21.9857 21.5838 23.066 19.9358 23.4022 18.0728H15.3V12.2966H29.4485C29.6249 13.2997 29.7076 14.3249 29.7076 15.3446C29.7076 19.9069 28.0771 23.7641 25.2401 26.3766L25.2431 26.3789C22.7573 28.6717 19.3456 30.0001 15.3 30.0001C9.62853 30.0001 4.44205 26.8033 1.89566 21.7381C-0.231827 17.4996 -0.231822 12.506 1.89568 8.26757C4.44207 3.19684 9.62853 3.427e-05 15.3 3.427e-05C19.0259 -0.0440591 22.625 1.3559 25.3368 3.90229L21.0542 8.18486Z" fill="#A7A9AC"/>
</g>
<defs>
<clipPath id="clip0_10_109">
<rect width="30" height="30" fill="white"/>
</clipPath>
</defs>
</svg>
