<svg width="152" height="80" viewBox="0 0 152 80" fill="none" xmlns="http://www.w3.org/2000/svg">
<path fill-rule="evenodd" clip-rule="evenodd" d="M67.922 0.308371C47.3798 2.12941 32.1504 6.5337 19.309 14.3682C12.7439 18.3733 4.74186 27.1414 3.5105 31.6784L3.16995 32.9336L12.2573 33.0626L21.3451 33.1911L21.4871 39.4291C21.565 42.8598 21.8175 45.6672 22.0471 45.6672C22.2772 45.6672 23.0153 45.0034 23.6867 44.1922C24.3586 43.381 26.8641 40.5741 29.254 37.9541L33.5997 33.1911L38.544 33.0564L43.4882 32.9218V40.9517V48.9816L54.3053 48.8545L65.1223 48.7274L65.2832 47.4327L65.4445 46.138H58.5384C54.7405 46.138 51.6328 45.9591 51.6328 45.7402C51.6328 45.5212 52.0854 44.9633 52.6387 44.5001C54.0625 43.309 53.4842 42.8424 50.5847 42.8424C47.8537 42.8424 47.6639 42.6461 48.8621 41.0642C49.6058 40.0821 50.0283 40.0176 55.7341 40.0176C59.078 40.0176 61.8085 40.1768 61.8024 40.3707C61.7963 40.5647 61.3432 41.2535 60.7955 41.9008C60.2478 42.5482 59.7947 43.2369 59.7886 43.4309C59.7825 43.6249 61.1518 43.784 62.8316 43.784H65.8859V41.9314C65.8859 40.9126 65.6624 39.5355 65.3895 38.8712L64.8932 37.6637H56.1989H47.5045L47.6598 35.4274L47.815 33.1911L59.47 33.0645C72.9696 32.9176 73.0205 32.9303 74.2646 36.8063C75.3025 40.0388 75.2715 46.5189 74.201 50.0479C72.9391 54.2065 73.2725 54.1415 53.218 54.1415C43.9927 54.1415 36.0828 54.013 35.6399 53.8557C34.9608 53.6147 34.8346 52.5799 34.8346 47.2646C34.8346 43.7967 34.6625 40.9686 34.4528 40.9804C34.2431 40.9922 31.5645 43.9657 28.5012 47.588L22.9313 54.1745L18.3204 54.0403L13.7096 53.9061L13.5701 45.7849L13.4311 37.6637H7.5889H1.74719V39.27C1.74719 40.1537 2.07501 42.4611 2.47562 44.3979C5.77062 60.324 25.9188 73.2916 54.9375 78.1624C58.1663 78.7048 60.1363 78.8475 60.3323 78.5541C60.5023 78.2999 60.9278 76.252 61.2775 74.0025C61.6278 71.7535 62.4443 67.4768 63.0923 64.499C63.7398 61.5212 64.4147 58.2906 64.5919 57.3194C64.8357 55.9828 65.1559 55.5539 65.9088 55.5539C66.456 55.5539 66.9039 55.6659 66.9039 55.8029C66.9039 55.9395 66.3516 58.6409 65.6766 61.8056C65.0017 64.9698 64.2956 68.5945 64.1078 69.86L63.7662 72.1607L64.9701 71.2723C68.1277 68.9419 75.0485 62.6535 75.0485 62.1149C75.0485 61.9544 73.5596 60.501 71.7398 58.8848C69.92 57.269 68.431 55.858 68.431 55.7502C68.431 55.6424 68.9615 55.5539 69.61 55.5539C70.3313 55.5539 71.9612 56.5548 73.8095 58.1324C75.471 59.5509 76.9447 60.7115 77.0847 60.7119C77.2247 60.7124 78.6566 59.5519 80.2667 58.1334C82.2132 56.4187 83.6207 55.5539 84.4662 55.5539C85.1661 55.5539 85.7383 55.7658 85.7383 56.0247C85.7383 56.2836 85.5662 56.5002 85.3565 56.5058C84.6994 56.5237 79.1208 61.565 79.1208 62.1408C79.1208 62.4421 79.7581 63.2547 80.5375 63.9468C86.7162 69.4348 89.9246 72.0831 90.1466 71.8783C90.2901 71.7455 90.059 70.0836 89.6329 68.1858C88.0498 61.1328 87.1407 55.9828 87.4314 55.7144C88.3201 54.8924 89.1595 56.3382 89.9699 60.0877C90.4667 62.3847 91.0781 65.217 91.3291 66.3822C91.58 67.5474 92.1766 70.5134 92.6546 72.9733C93.9348 79.5607 93.3016 79.1568 100.354 77.8889C116.633 74.9639 129.383 69.8129 139.109 62.2326C141.731 60.1889 146.822 54.9113 146.824 54.2347C146.824 54.0539 143.606 53.9701 139.671 54.0488L132.518 54.1919L126.598 49.4585C123.341 46.8555 120.498 44.7256 120.279 44.7256C120.06 44.7256 119.815 46.791 119.735 49.3158L119.589 53.9061L101.633 54.0299C79.723 54.1811 80.6245 54.4042 79.1468 48.4632C78.7406 46.831 78.6052 44.437 78.7864 42.1075C79.2776 35.8031 79.5703 34.8596 81.3453 33.853C82.8108 33.0221 83.8584 32.959 94.3919 33.0701L105.845 33.1911L106.001 35.4274L106.156 37.6637H97.524H88.8923L88.3334 39.1462C87.6294 41.0138 87.6182 44.8927 88.3105 47.1973L88.8404 48.9628H99.494H110.148L110.287 41.0769L110.427 33.1911H115.008H119.589L119.844 37.5488L120.098 41.9069L125.443 37.4391L130.788 32.9717L135.921 32.9637C138.744 32.9595 141.19 33.0814 141.356 33.2354C141.523 33.3893 140.473 34.4627 139.023 35.6209C137.574 36.779 135.699 38.295 134.857 38.9899C134.016 39.6848 132.54 40.8561 131.579 41.5929L129.831 42.9328L131.425 44.1823C132.303 44.8697 134.217 46.2326 135.68 47.2114L138.34 48.9915L144.235 48.8592L150.131 48.7274L151.054 45.4318C152.161 41.4813 151.939 37.0107 150.409 32.4284C145.83 18.7165 125.534 6.45885 100.246 2.13129C93.8681 1.03999 83.7459 0.0150655 79.244 0.00470796C77.3382 0.000470796 77.133 0.0998087 77.5479 0.823892C78.0788 1.75183 79.4186 7.54356 79.8951 10.97C80.1562 12.8518 80.4377 13.315 81.5739 13.7355C82.3247 14.0132 83.9694 14.6173 85.2293 15.0772C97.294 19.4829 101.273 21.2117 101.427 22.1147C101.621 23.2545 102.315 23.1744 91.5922 23.2465L82.9386 23.3044L82.991 24.7168C83.0195 25.4936 83.2196 27.3189 83.4349 28.7731L83.8264 31.4171L81.8773 31.7552C80.1099 32.0617 79.8075 31.9576 78.6337 30.637C77.046 28.8508 76.623 28.8362 74.8917 30.5076C73.7749 31.5857 73.1931 31.7895 71.6935 31.6276L69.8609 31.4299L70.1776 29.2501C70.3521 28.0514 70.623 26.2765 70.7803 25.3053L71.0658 23.5398H61.6038H52.1419V22.3943C52.1419 21.6166 52.5089 21.1458 53.2872 20.9264C53.9169 20.7484 57.5249 19.3883 61.3045 17.9029C65.0841 16.4181 69.2725 14.8013 70.6118 14.3103C72.1821 13.7345 73.1203 13.0834 73.2532 12.4761C73.3667 11.9582 74.0081 8.93947 74.6779 5.76725L75.8966 0L72.8001 0.0753273C71.0969 0.116757 68.9019 0.221745 67.922 0.308371ZM76.2366 8.94512C75.9419 10.3693 75.6115 11.8523 75.5021 12.2407C75.3672 12.7195 75.7535 12.9949 76.7029 13.0957C78.3242 13.2684 78.4209 12.6503 77.3881 8.70972L76.7716 6.35574L76.2366 8.94512ZM70.3399 16.2763C69.5703 16.6629 68.9482 17.1308 68.9584 17.3168C68.9859 17.829 71.413 20.4744 71.6273 20.2259C71.7301 20.1063 72.0523 19.0023 72.343 17.7725C72.9299 15.2863 72.682 15.1012 70.3399 16.2763ZM81.2781 17.7725C81.5571 19.0023 81.8788 20.103 81.9938 20.2174C82.1084 20.3323 82.8948 19.7249 83.7413 18.8681C84.5879 18.0108 85.2114 17.2556 85.1275 17.1892C84.6597 16.8192 81.6446 15.5363 81.244 15.5363C80.9579 15.5363 80.9717 16.4195 81.2781 17.7725ZM74.3542 17.1869C74.1938 17.5739 74.2707 17.8902 74.5252 17.8902C75.2155 17.8902 75.6441 17.0536 75.1101 16.7486C74.8551 16.6026 74.5151 16.7999 74.3542 17.1869ZM78.4127 16.8658C78.2331 17.1346 78.3344 17.4962 78.6372 17.6694C79.3937 18.1016 79.6614 17.7579 79.157 17.0023C78.8862 16.5979 78.624 16.5494 78.4127 16.8658ZM62.5771 19.3375C60.8973 20.0936 59.2231 20.7127 58.8566 20.7136C58.4901 20.7145 58.2956 20.8737 58.4249 21.0681C58.5537 21.2625 61.0851 21.3548 64.0498 21.2734L69.4405 21.1255L68.0447 19.5079C67.2776 18.6181 66.4203 17.9067 66.1404 17.9265C65.8604 17.9463 64.2569 18.5809 62.5771 19.3375ZM85.8752 19.538L84.2982 21.1858L89.9811 21.1486C93.1071 21.1284 95.3209 20.9961 94.901 20.8553C94.481 20.7145 92.6897 19.99 90.9203 19.2447C89.1509 18.4999 87.6472 17.8902 87.578 17.8902C87.5092 17.8902 86.7431 18.6317 85.8752 19.538ZM75.6105 19.9566C74.2575 21.2889 74.6077 21.5544 77.2588 21.207L79.215 20.9504L77.9867 19.8883L76.7584 18.8266L75.6105 19.9566ZM74.5395 23.5346C74.5395 23.706 75.0709 24.3081 75.7205 24.8726L76.9019 25.8989L78.1002 24.7196C78.7589 24.0708 79.2012 23.5148 79.0821 23.4838C78.1659 23.247 74.5395 23.2874 74.5395 23.5346ZM72.5517 27.0886C71.6115 30.541 71.7825 30.951 73.5072 29.3857C75.2868 27.7704 75.3896 27.1508 74.0788 25.9385C73.1249 25.0562 73.0999 25.0755 72.5517 27.0886ZM79.2481 26.1273C78.8984 26.495 78.6118 27.0576 78.6118 27.3782C78.6118 27.9719 81.0949 30.6017 81.6558 30.6017C81.8253 30.6017 81.7332 29.4365 81.4507 28.0123C80.9299 25.3834 80.3934 24.9239 79.2481 26.1273ZM70.9472 68.7239L65.1223 73.8904L76.7029 73.9027C83.072 73.9093 88.2835 73.7323 88.2835 73.5086C88.2835 73.124 77.4161 63.5574 76.9793 63.5574C76.8653 63.5574 74.1511 65.8822 70.9472 68.7239ZM66.9884 77.7015C68.202 78.7481 69.6853 79.7189 70.2855 79.8582C70.8856 79.9981 74.3761 80.0419 78.0422 79.9562L84.708 79.7999L86.8699 77.799L89.0323 75.7981H76.907H64.7823L66.9884 77.7015ZM62.3226 77.8616C62.3226 78.6276 62.6866 79.0739 63.4679 79.2679C65.8232 79.8517 66.0971 79.5847 64.6133 78.1521C62.8464 76.4464 62.3226 76.38 62.3226 77.8616ZM89.3499 77.9666C88.0442 79.5023 88.1542 79.6591 90.2647 79.2688C91.5398 79.0329 91.8656 78.7552 91.746 78.0075C91.5143 76.5627 90.5579 76.5462 89.3499 77.9666Z" fill="#508CC3"/>
</svg>
