<svg width="140" height="84" viewBox="0 0 140 84" fill="none" xmlns="http://www.w3.org/2000/svg">
<path fill-rule="evenodd" clip-rule="evenodd" d="M62.9399 10.2467C46.5061 11.7035 34.3226 15.227 24.0494 21.4946C18.7974 24.6986 12.3957 31.7131 11.4106 35.3427L11.1382 36.3469L18.4081 36.4501L25.6783 36.5529L25.792 41.5433C25.8543 44.2879 26.0563 46.5337 26.2399 46.5337C26.424 46.5337 27.0145 46.0027 27.5516 45.3537C28.0891 44.7048 30.0935 42.4593 32.0055 40.3633L35.482 36.5529L39.4374 36.4452L43.3928 36.3374V42.7614V49.1853L52.0465 49.0836L60.7001 48.9819L60.8288 47.9461L60.9579 46.9104H55.433C52.3946 46.9104 49.9085 46.7673 49.9085 46.5921C49.9085 46.417 50.2705 45.9707 50.7132 45.6001C51.8522 44.6472 51.3896 44.2739 49.07 44.2739C46.8852 44.2739 46.7333 44.1169 47.692 42.8514C48.2869 42.0657 48.6249 42.0141 53.1896 42.0141C55.8646 42.0141 58.049 42.1414 58.0441 42.2966C58.0392 42.4518 57.6768 43.0028 57.2386 43.5207C56.8005 44.0385 56.438 44.5895 56.4331 44.7447C56.4283 44.8999 57.5237 45.0272 58.8676 45.0272H61.3109V43.5451C61.3109 42.7301 61.1322 41.6284 60.9139 41.097L60.5168 40.1309H53.5614H46.6059L46.7301 38.3419L46.8543 36.5529L56.1782 36.4516C66.9779 36.3341 67.0187 36.3442 68.0139 39.4451C68.8443 42.0311 68.8194 47.2151 67.963 50.0383C66.9535 53.3652 67.2202 53.3132 51.1766 53.3132C43.7964 53.3132 37.4685 53.2104 37.1142 53.0846C36.5709 52.8917 36.4699 52.0639 36.4699 47.8117C36.4699 45.0374 36.3323 42.7749 36.1645 42.7843C35.9967 42.7937 33.8539 45.1726 31.4032 48.0704L26.9473 53.3396L23.2586 53.2322L19.5699 53.1249L19.4583 46.6279L19.3471 40.1309H14.6734H10V41.416C10 42.123 10.2623 43.9688 10.5827 45.5183C13.2187 58.2592 29.3373 68.6333 52.5522 72.53C55.1353 72.9638 56.7113 73.078 56.8681 72.8433C57.0041 72.6399 57.3445 71.0016 57.6243 69.202C57.9045 67.4028 58.5577 63.9814 59.0761 61.5992C59.5941 59.217 60.134 56.6325 60.2758 55.8555C60.4708 54.7862 60.727 54.4431 61.3293 54.4431C61.767 54.4431 62.1254 54.5327 62.1254 54.6424C62.1254 54.7516 61.6836 56.9127 61.1436 59.4445C60.6036 61.9758 60.0387 64.8756 59.8885 65.888L59.6152 67.7286L60.5783 67.0179C63.1044 65.1535 68.6411 60.1228 68.6411 59.6919C68.6411 59.5635 67.4499 58.4008 65.9941 57.1078C64.5382 55.8152 63.3471 54.6864 63.3471 54.6002C63.3471 54.5139 63.7714 54.4431 64.2902 54.4431C64.8673 54.4431 66.1712 55.2438 67.6499 56.5059C68.9791 57.6408 70.158 58.5692 70.27 58.5695C70.382 58.5699 71.5275 57.6415 72.8156 56.5067C74.3728 55.135 75.4988 54.4431 76.1752 54.4431C76.7352 54.4431 77.1929 54.6126 77.1929 54.8197C77.1929 55.0269 77.0552 55.2002 76.8875 55.2047C76.3617 55.219 71.8989 59.252 71.8989 59.7126C71.8989 59.9537 72.4088 60.6038 73.0322 61.1574C77.9752 65.5479 80.5419 67.6664 80.7195 67.5026C80.8343 67.3964 80.6495 66.0669 80.3086 64.5486C79.0421 58.9062 78.3148 54.7862 78.5473 54.5715C79.2584 53.9139 79.9299 55.0706 80.5782 58.0701C80.9756 59.9077 81.4647 62.1736 81.6655 63.1058C81.8663 64.0379 82.3435 66.4107 82.7259 68.3787C83.7501 73.6486 83.2435 73.3254 88.8857 72.3111C101.908 69.9711 112.108 65.8503 119.89 59.7861C121.987 58.1511 126.06 53.929 126.061 53.3878C126.062 53.2431 123.487 53.1761 120.339 53.239L114.616 53.3535L109.88 49.5668C107.275 47.4844 105.001 45.7805 104.825 45.7805C104.65 45.7805 104.454 47.4328 104.39 49.4527L104.274 53.1249L89.9086 53.2239C72.3807 53.3448 73.1019 53.5234 71.9197 48.7706C71.5947 47.4648 71.4864 45.5496 71.6314 43.686C72.0243 38.6425 72.2585 37.8877 73.6785 37.0824C74.8509 36.4177 75.689 36.3672 84.1158 36.4561L93.2785 36.5529L93.4027 38.3419L93.5269 40.1309H86.6215H79.7161L79.269 41.317C78.7057 42.8111 78.6968 45.9142 79.2506 47.7578L79.6745 49.1702H88.1975H96.7204L96.8319 42.8615L96.9435 36.5529H100.609H104.274L104.477 40.039L104.681 43.5255L108.957 39.9513L113.233 36.3774L117.339 36.371C119.597 36.3676 121.554 36.4651 121.687 36.5883C121.82 36.7114 120.98 37.5702 119.82 38.4967C118.661 39.4232 117.161 40.636 116.488 41.1919C115.815 41.7478 114.634 42.6849 113.865 43.2743L112.467 44.3462L113.743 45.3458C114.445 45.8957 115.976 46.9861 117.147 47.7691L119.274 49.1932L123.99 49.0873L128.707 48.9819L129.446 46.3454C130.331 43.1851 130.154 39.6085 128.929 35.9427C125.266 24.9732 109.03 15.1671 88.7989 11.705C83.6968 10.832 75.599 10.0121 71.9975 10.0038C70.4728 10.0004 70.3087 10.0798 70.6406 10.6591C71.0653 11.4015 72.1371 16.0348 72.5183 18.776C72.7272 20.2814 72.9524 20.652 73.8613 20.9884C74.462 21.2106 75.7778 21.6938 76.7857 22.0618C86.4374 25.5864 89.6203 26.9694 89.7437 27.6917C89.8989 28.6036 90.4543 28.5396 81.876 28.5972L74.9531 28.6435L74.9951 29.7734C75.0179 30.3949 75.1779 31.8551 75.3502 33.0185L75.6633 35.1337L74.104 35.4041C72.6901 35.6493 72.4483 35.5661 71.5092 34.5096C70.239 33.0807 69.9006 33.069 68.5156 34.406C67.6222 35.2685 67.1567 35.4316 65.957 35.3021L64.491 35.1439L64.7443 33.4001C64.884 32.4411 65.1006 31.0212 65.2264 30.2442L65.4549 28.8318H57.8853H50.3157V27.9155C50.3157 27.2933 50.6093 26.9166 51.232 26.7411C51.7357 26.5987 54.6222 25.5106 57.6459 24.3224C60.6695 23.1344 64.0202 21.8411 65.0917 21.4482C66.348 20.9876 67.0985 20.4667 67.2048 19.9809C67.2956 19.5666 67.8087 17.1516 68.3446 14.6138L69.3195 10L66.8423 10.0603C65.4797 10.0934 63.7238 10.1774 62.9399 10.2467ZM69.5915 17.1561C69.3558 18.2954 69.0915 19.4818 69.0039 19.7926C68.896 20.1756 69.2051 20.3959 69.9646 20.4765C71.2616 20.6147 71.339 20.1202 70.5127 16.9678L70.0195 15.0846L69.5915 17.1561ZM64.8742 23.0211C64.2585 23.3303 63.7608 23.7047 63.769 23.8534C63.791 24.2632 65.7326 26.3795 65.9041 26.1807C65.9863 26.085 66.2441 25.2018 66.4766 24.218C66.9462 22.229 66.7479 22.081 64.8742 23.0211ZM73.6247 24.218C73.8479 25.2018 74.1053 26.0824 74.1973 26.1739C74.2889 26.2658 74.9181 25.7799 75.5953 25.0945C76.2725 24.4086 76.7714 23.8045 76.7042 23.7514C76.33 23.4553 73.9179 22.429 73.5975 22.429C73.3686 22.429 73.3796 23.1356 73.6247 24.218ZM68.0856 23.7495C67.9573 24.0591 68.0188 24.3122 68.2224 24.3122C68.7746 24.3122 69.1175 23.6429 68.6903 23.3988C68.4863 23.2821 68.2143 23.4399 68.0856 23.7495ZM71.3324 23.4926C71.1887 23.7077 71.2697 23.9969 71.512 24.1355C72.1172 24.4813 72.3314 24.2064 71.9278 23.6019C71.7112 23.2783 71.5014 23.2395 71.3324 23.4926ZM58.6639 25.47C57.3201 26.0748 55.9807 26.5701 55.6875 26.5709C55.3943 26.5716 55.2387 26.6989 55.3422 26.8545C55.4452 27.01 57.4704 27.0839 59.8421 27.0187L64.1546 26.9004L63.038 25.6063C62.4243 24.8945 61.7385 24.3254 61.5145 24.3412C61.2906 24.357 60.0078 24.8647 58.6639 25.47ZM77.3024 25.6304L76.0408 26.9486L80.5872 26.9189C83.088 26.9027 84.859 26.7969 84.523 26.6842C84.1871 26.5716 82.754 25.992 81.3385 25.3958C79.923 24.7999 78.72 24.3122 78.6646 24.3122C78.6096 24.3122 77.9968 24.9054 77.3024 25.6304ZM69.0906 25.9652C68.0082 27.0311 68.2884 27.2435 70.4093 26.9656L71.9742 26.7603L70.9916 25.9106L70.0089 25.0613L69.0906 25.9652ZM68.2338 28.8277C68.2338 28.9648 68.659 29.4465 69.1786 29.8981L70.1238 30.7192L71.0824 29.7757C71.6094 29.2567 71.9632 28.8119 71.868 28.787C71.1349 28.5976 68.2338 28.6299 68.2338 28.8277ZM66.6436 31.6709C65.8915 34.4328 66.0283 34.7608 67.408 33.5085C68.8316 32.2163 68.9139 31.7206 67.8653 30.7508C67.1021 30.045 67.0822 30.0604 66.6436 31.6709ZM72.0007 30.9018C71.7209 31.196 71.4917 31.6461 71.4917 31.9025C71.4917 32.3775 73.4781 34.4814 73.9269 34.4814C74.0625 34.4814 73.9888 33.5492 73.7628 32.4099C73.3462 30.3067 72.917 29.9391 72.0007 30.9018ZM65.36 64.9791L60.7001 69.1124L69.9646 69.1221C75.0598 69.1274 79.229 68.9858 79.229 68.8069C79.229 68.4992 70.5351 60.8459 70.1857 60.8459C70.0945 60.8459 67.9231 62.7058 65.36 64.9791ZM62.193 72.1612C63.1638 72.9985 64.3505 73.7751 64.8306 73.8866C65.3107 73.9985 68.1031 74.0335 71.036 73.9649L76.3687 73.8399L78.0982 72.2392L79.8281 70.6385H70.1279H60.4281L62.193 72.1612ZM58.4603 72.2893C58.4603 72.9021 58.7515 73.2591 59.3766 73.4143C61.2608 73.8813 61.4799 73.6678 60.2929 72.5217C58.8794 71.1571 58.4603 71.104 58.4603 72.2893ZM80.0822 72.3733C79.0376 73.6019 79.1256 73.7273 80.814 73.415C81.8341 73.2263 82.0947 73.0041 81.999 72.406C81.8137 71.2501 81.0485 71.237 80.0822 72.3733Z" fill="#A7A9AC"/>
</svg>
